<svg width="20" height="16" viewBox="0 0 20 16" fill="none" xmlns="http://www.w3.org/2000/svg">
<path d="M1.66666 3.83334L8.47076 8.5962C9.02173 8.98189 9.29722 9.17473 9.59688 9.24943C9.86157 9.3154 10.1384 9.3154 10.4031 9.24943C10.7028 9.17473 10.9782 8.98189 11.5292 8.59621L18.3333 3.83334M5.66666 14.6667H14.3333C15.7335 14.6667 16.4335 14.6667 16.9683 14.3942C17.4387 14.1545 17.8212 13.7721 18.0608 13.3016C18.3333 12.7669 18.3333 12.0668 18.3333 10.6667V5.33334C18.3333 3.9332 18.3333 3.23314 18.0608 2.69836C17.8212 2.22795 17.4387 1.8455 16.9683 1.60582C16.4335 1.33334 15.7335 1.33334 14.3333 1.33334H5.66666C4.26653 1.33334 3.56646 1.33334 3.03168 1.60582C2.56128 1.8455 2.17882 2.22795 1.93914 2.69836C1.66666 3.23314 1.66666 3.9332 1.66666 5.33334V10.6667C1.66666 12.0668 1.66666 12.7669 1.93914 13.3016C2.17882 13.7721 2.56128 14.1545 3.03168 14.3942C3.56646 14.6667 4.26653 14.6667 5.66666 14.6667Z" stroke="white" stroke-width="1.66667" stroke-linecap="round" stroke-linejoin="round"/>
</svg>
